<?xml version="1.0" standalone="no"?>
<!DOCTYPE svg PUBLIC "-//W3C//DTD SVG 20010904//EN"
 "http://www.w3.org/TR/2001/REC-SVG-20010904/DTD/svg10.dtd">
<svg version="1.0" xmlns="http://www.w3.org/2000/svg"
 width="826.000000pt" height="826.000000pt" viewBox="0 0 826.000000 826.000000"
 preserveAspectRatio="xMidYMid meet">
<metadata>
Created by potrace 1.11, written by Peter Selinger 2001-2013
</metadata>
<g transform="translate(0.000000,826.000000) scale(0.100000,-0.100000)"
fill="#000000" stroke="none">
<path d="M4109 8232 c-152 -40 -272 -165 -314 -327 -12 -46 -15 -151 -15 -570
0 -337 -3 -515 -10 -515 -5 0 -10 12 -10 26 0 50 -60 156 -125 220 -86 84
-225 140 -326 131 -217 -20 -371 -146 -424 -348 -12 -43 -15 -154 -16 -539 -1
-267 -4 -519 -8 -560 -6 -71 -7 -73 -14 -35 -29 143 -170 285 -326 328 -56 15
-172 20 -184 8 -6 -6 -22 -11 -35 -11 -43 0 -150 -61 -208 -117 -59 -58 -110
-149 -120 -215 -4 -21 -10 -38 -15 -38 -5 0 -9 -336 -10 -762 0 -743 -1 -761
-18 -702 -44 155 -173 280 -325 317 -55 13 -172 13 -219 0 -158 -45 -283 -172
-328 -333 -10 -33 -14 -238 -19 -800 l-5 -755 -215 -37 c-118 -21 -235 -45
-258 -54 -68 -25 -166 -124 -207 -208 -74 -149 -89 -281 -56 -478 39 -225 96
-352 210 -468 75 -76 144 -113 242 -130 58 -10 83 -9 211 14 79 14 148 26 151
26 4 0 23 -26 43 -57 20 -32 75 -96 123 -143 172 -170 369 -222 537 -140 33
15 160 87 284 159 124 72 229 131 235 131 5 0 31 -26 56 -58 90 -112 208 -185
413 -254 110 -38 133 -42 245 -46 112 -4 127 -7 143 -26 9 -11 17 -25 18 -29
0 -18 93 -151 137 -198 149 -160 377 -230 533 -166 30 13 204 109 387 215 182
106 335 192 340 192 5 0 63 -93 128 -206 66 -113 130 -222 142 -242 12 -21 26
-46 32 -58 18 -39 98 -111 153 -137 76 -36 138 -49 233 -49 109 0 202 24 320
81 189 93 313 190 395 311 35 51 52 63 242 173 113 64 209 117 214 117 6 0 61
-36 123 -79 l113 -79 -54 -11 c-29 -6 -132 -24 -228 -41 -96 -17 -187 -33
-203 -36 -65 -13 -127 -100 -127 -179 0 -85 71 -177 147 -189 46 -8 864 134
909 157 57 29 94 95 94 166 0 38 3 42 43 62 121 61 206 142 306 292 109 163
147 285 138 441 -3 52 -14 115 -25 147 l-20 56 78 46 c91 55 132 98 171 182
51 108 61 217 33 353 -21 101 -51 174 -126 302 -99 168 -239 297 -380 349
l-28 11 0 474 c0 265 -4 477 -9 480 -5 3 -12 23 -16 43 -25 138 -169 283 -324
326 -56 15 -172 20 -184 8 -6 -6 -22 -11 -35 -11 -42 0 -150 -61 -207 -116
-59 -59 -97 -124 -120 -207 -12 -47 -14 -12 -14 373 -1 234 -4 625 -7 870 -8
554 -11 570 -130 700 -75 80 -130 110 -266 140 -50 11 -68 11 -135 -4 -106
-23 -174 -59 -241 -126 -68 -68 -122 -168 -122 -228 0 -21 -2 -24 -10 -12 -6
9 -10 286 -10 732 0 763 0 762 -49 873 -27 62 -131 168 -194 199 -93 45 -230
68 -285 48 -15 -5 -47 -16 -72 -23 -136 -39 -252 -170 -297 -334 -5 -18 -10
153 -14 410 -3 242 -9 454 -13 470 -19 73 -69 160 -124 214 -118 116 -276 156
-443 113z"/>
<path d="M2067 680 c-75 -23 -137 -108 -137 -188 0 -56 26 -118 60 -142 16
-11 212 -88 437 -170 352 -130 414 -150 448 -145 52 7 96 34 131 81 38 49 46
150 16 204 -28 51 -59 68 -255 139 l-176 64 44 39 c47 41 59 80 33 106 -22 22
-51 12 -118 -43 -37 -30 -72 -55 -77 -55 -5 0 -76 24 -158 54 -161 59 -205 69
-248 56z"/>
</g>
</svg>
